<svg width="69" height="33" viewBox="0 0 69 33" fill="none" xmlns="http://www.w3.org/2000/svg">
<path d="M9.769 32.443C9.37433 32.443 9.07833 32.3073 8.881 32.036C8.68367 31.7893 8.585 31.4933 8.585 31.148C8.585 30.7287 8.696 30.3587 8.918 30.038C9.04133 29.8407 9.177 29.668 9.325 29.52C9.49767 29.3473 9.658 29.1993 9.806 29.076C10.472 27.6947 11.0393 26.1777 11.508 24.525C11.9767 22.8477 12.322 21.1333 12.544 19.382C12.7907 17.606 12.914 15.904 12.914 14.276C12.914 12.6233 12.7907 11.1063 12.544 9.725C12.2973 8.34367 11.915 7.19667 11.397 6.284C10.9037 5.396 10.324 4.74233 9.658 4.323C9.01667 3.90367 8.37533 3.694 7.734 3.694C6.82133 3.694 6.01967 4.08867 5.329 4.878C4.663 5.64267 4.33 6.71567 4.33 8.097C4.33 8.93567 4.49033 9.873 4.811 10.909C5.13167 11.9203 5.662 13.018 6.402 14.202C7.068 15.2627 7.79567 16.1507 8.585 16.866C9.37433 17.5567 10.3363 18.1487 11.471 18.642C11.5943 18.716 11.7423 18.79 11.915 18.864C12.0877 18.938 12.2233 19.049 12.322 19.197C12.396 19.345 12.433 19.4807 12.433 19.604C12.433 19.826 12.359 20.0233 12.211 20.196C12.063 20.344 11.9397 20.4427 11.841 20.492C11.3723 20.7633 10.916 20.899 10.472 20.899C9.78133 20.899 9.05367 20.677 8.289 20.233C7.549 19.789 6.83367 19.2463 6.143 18.605C5.45233 17.939 4.83567 17.273 4.293 16.607C3.775 15.9163 3.38033 15.349 3.109 14.905C2.34433 13.6963 1.78933 12.5247 1.444 11.39C1.12333 10.2553 0.963 9.17 0.963 8.134C0.963 6.58 1.28367 5.211 1.925 4.027C2.56633 2.81833 3.405 1.881 4.441 1.215C5.477 0.524331 6.59933 0.178998 7.808 0.178998C8.94267 0.178998 10.0773 0.511998 11.212 1.178C12.3713 1.844 13.432 2.94167 14.394 4.471C15.1093 5.60567 15.6027 6.93767 15.874 8.467C16.17 9.99633 16.318 11.575 16.318 13.203C16.318 14.979 16.1947 16.7303 15.948 18.457C15.7013 20.159 15.43 21.6637 15.134 22.971C15.1093 23.1683 14.986 23.267 14.764 23.267C14.6653 23.267 14.5667 23.23 14.468 23.156C14.394 23.0573 14.3693 22.9463 14.394 22.823C14.7147 21.5157 14.986 20.0233 15.208 18.346C15.4547 16.644 15.578 14.9297 15.578 13.203C15.578 11.6243 15.4423 10.1073 15.171 8.652C14.8997 7.19667 14.431 5.93867 13.765 4.878C12.877 3.49667 11.9027 2.49767 10.842 1.881C9.806 1.23967 8.78233 0.918999 7.771 0.918999C6.71033 0.918999 5.71133 1.22733 4.774 1.844C3.86133 2.46067 3.12133 3.31167 2.554 4.397C2.01133 5.48233 1.74 6.728 1.74 8.134C1.74 9.12067 1.90033 10.1567 2.221 11.242C2.54167 12.3027 3.04733 13.4003 3.738 14.535C3.96 14.905 4.31767 15.3983 4.811 16.015C5.329 16.6317 5.90867 17.2607 6.55 17.902C7.19133 18.5433 7.845 19.086 8.511 19.53C9.20167 19.9493 9.85533 20.159 10.472 20.159C10.8667 20.159 11.1997 20.0727 11.471 19.9C11.5943 19.8013 11.656 19.7273 11.656 19.678C11.6807 19.6287 11.693 19.5917 11.693 19.567C11.5203 19.4437 11.212 19.2957 10.768 19.123C10.3487 18.9257 10.0157 18.7653 9.769 18.642C9.029 18.198 8.289 17.5937 7.549 16.829C6.83367 16.0397 6.16767 15.1517 5.551 14.165C4.959 13.1783 4.478 12.1547 4.108 11.094C3.76267 10.0333 3.59 8.99733 3.59 7.986C3.59 7.246 3.701 6.543 3.923 5.877C4.16967 5.18633 4.56433 4.582 5.107 4.064C5.847 3.324 6.735 2.954 7.771 2.954C8.53567 2.954 9.30033 3.20067 10.065 3.694C10.8297 4.16267 11.4957 4.90267 12.063 5.914C12.6057 6.876 13.0003 8.08466 13.247 9.54C13.5183 10.9953 13.654 12.574 13.654 14.276C13.654 15.978 13.5307 17.7417 13.284 19.567C13.0373 21.3677 12.6673 23.1313 12.174 24.858C11.7053 26.56 11.1257 28.1017 10.435 29.483L10.361 29.594C10.139 29.7667 9.90467 29.9887 9.658 30.26C9.436 30.5067 9.325 30.7903 9.325 31.111C9.325 31.6043 9.57167 31.777 10.065 31.629C10.731 31.4563 11.508 31.0123 12.396 30.297C13.284 29.557 14.209 28.6567 15.171 27.596C16.133 26.5107 17.0703 25.339 17.983 24.081C18.8957 22.823 19.6973 21.5773 20.388 20.344C21.424 18.5433 22.423 16.7427 23.385 14.942C24.3717 13.1167 25.5063 11.3777 26.789 9.725C27.751 8.467 28.8117 7.30767 29.971 6.247C31.1303 5.16166 32.3883 4.29833 33.745 3.657C35.1263 2.991 36.6063 2.64567 38.185 2.621C38.4563 2.621 38.666 2.57167 38.814 2.473C38.962 2.34967 39.036 2.22633 39.036 2.103C39.036 1.807 38.814 1.659 38.37 1.659C36.2733 1.60967 34.3987 1.94267 32.746 2.658C31.118 3.37333 29.6627 4.36 28.38 5.618C27.0973 6.876 25.938 8.282 24.902 9.836C23.866 11.39 22.904 12.9933 22.016 14.646C21.128 16.2987 20.2523 17.865 19.389 19.345C18.6737 20.5783 17.9337 21.713 17.169 22.749C16.4043 23.785 15.578 24.6237 14.69 25.265C14.6407 25.3143 14.5667 25.339 14.468 25.339C14.2213 25.339 14.098 25.2157 14.098 24.969C14.098 24.8457 14.1473 24.747 14.246 24.673C15.06 24.081 15.8247 23.2917 16.54 22.305C17.28 21.3183 18.0077 20.2083 18.723 18.975C19.611 17.421 20.5113 15.8053 21.424 14.128C22.3613 12.426 23.3603 10.7857 24.421 9.207C25.5063 7.62833 26.7027 6.21 28.01 4.952C29.342 3.66933 30.859 2.67033 32.561 1.955C34.263 1.215 36.1993 0.869665 38.37 0.918999C38.8633 0.918999 39.221 1.04233 39.443 1.289C39.665 1.53567 39.776 1.79466 39.776 2.066C39.776 2.38666 39.6403 2.68267 39.369 2.954C39.1223 3.20067 38.7277 3.33633 38.185 3.361C36.483 3.38566 34.9043 3.805 33.449 4.619C32.0183 5.40833 30.6987 6.44433 29.49 7.727C28.306 8.985 27.2207 10.3417 26.234 11.797C25.272 13.2277 24.421 14.5967 23.681 15.904C23.1383 16.8413 22.645 17.7293 22.201 18.568C21.7817 19.382 21.3993 20.0973 21.054 20.714C20.3633 21.9227 19.5493 23.1683 18.612 24.451C17.6993 25.7337 16.7373 26.9423 15.726 28.077C14.7393 29.2117 13.765 30.1613 12.803 30.926C11.8657 31.6907 11.0147 32.1717 10.25 32.369C10.1513 32.3937 10.065 32.406 9.991 32.406C9.917 32.4307 9.843 32.443 9.769 32.443ZM31.0168 24.451C30.8688 24.451 30.7455 24.3893 30.6468 24.266C30.5728 24.1427 30.5852 24.007 30.6838 23.859C31.4238 22.7737 31.7938 21.7253 31.7938 20.714C31.7938 19.9987 31.5718 19.419 31.1278 18.975C30.7085 18.5063 30.0672 18.272 29.2038 18.272C27.9212 18.272 26.6632 18.8393 25.4298 19.974C24.2212 21.084 22.9755 22.4777 21.6928 24.155C21.6188 24.229 21.5448 24.266 21.4708 24.266C21.3475 24.266 21.2488 24.192 21.1748 24.044C21.0762 23.896 21.0762 23.748 21.1748 23.6C22.0135 22.49 22.8522 21.4787 23.6908 20.566C24.5295 19.6533 25.3928 18.9257 26.2808 18.383C27.1935 17.8403 28.1432 17.569 29.1298 17.569C30.3632 17.569 31.2388 17.865 31.7568 18.457C32.2748 19.049 32.5338 19.7643 32.5338 20.603C32.5338 21.2197 32.4228 21.8487 32.2008 22.49C31.9788 23.1313 31.6705 23.7357 31.2758 24.303C31.2018 24.4017 31.1155 24.451 31.0168 24.451ZM24.3568 29.039C23.8388 29.039 23.4318 28.8663 23.1358 28.521C22.8645 28.151 22.7288 27.6823 22.7288 27.115C22.7288 26.375 22.9508 25.561 23.3948 24.673C23.8388 23.785 24.4062 22.9463 25.0968 22.157C25.8122 21.343 26.5522 20.677 27.3168 20.159C28.0815 19.641 28.7722 19.382 29.3888 19.382C29.7342 19.382 29.9068 19.5053 29.9068 19.752C29.9068 19.8507 29.8698 19.9493 29.7958 20.048C29.7218 20.122 29.6232 20.1467 29.4998 20.122C28.9818 20.0727 28.3775 20.2823 27.6868 20.751C27.0208 21.2197 26.3672 21.824 25.7258 22.564C25.0845 23.304 24.5418 24.0933 24.0978 24.932C23.6785 25.746 23.4688 26.486 23.4688 27.152C23.4688 27.4727 23.5305 27.744 23.6538 27.966C23.7772 28.188 24.0115 28.299 24.3568 28.299C24.7515 28.299 25.1708 28.1757 25.6148 27.929C26.0588 27.6577 26.4658 27.337 26.8358 26.967C27.2058 26.597 27.4772 26.2517 27.6498 25.931C27.7238 25.8077 27.8225 25.746 27.9458 25.746C28.0692 25.746 28.1802 25.8077 28.2788 25.931C28.3775 26.0297 28.3775 26.153 28.2788 26.301C28.0568 26.671 27.7362 27.078 27.3168 27.522C26.8975 27.9413 26.4288 28.299 25.9108 28.595C25.3928 28.891 24.8748 29.039 24.3568 29.039ZM30.5728 26.079C29.7588 26.079 29.0558 25.8323 28.4638 25.339C27.8718 24.8457 27.5758 24.1797 27.5758 23.341C27.5758 23.045 27.6128 22.7367 27.6868 22.416C27.7855 22.0707 27.9212 21.713 28.0938 21.343C28.1678 21.195 28.2788 21.121 28.4268 21.121C28.5502 21.121 28.6488 21.1703 28.7228 21.269C28.8215 21.3677 28.8338 21.491 28.7598 21.639C28.6118 21.935 28.5008 22.2187 28.4268 22.49C28.3775 22.7613 28.3528 23.0203 28.3528 23.267C28.3528 23.933 28.5748 24.451 29.0188 24.821C29.4628 25.1663 29.9932 25.339 30.6098 25.339C31.1525 25.339 31.7075 25.2033 32.2748 24.932C32.8422 24.6607 33.3602 24.229 33.8288 23.637C33.9028 23.5383 33.9892 23.489 34.0878 23.489C34.2112 23.489 34.3222 23.563 34.4208 23.711C34.5195 23.8343 34.5195 23.9577 34.4208 24.081C33.8535 24.7717 33.2245 25.2773 32.5338 25.598C31.8678 25.9187 31.2142 26.079 30.5728 26.079ZM24.2828 31.37C23.2222 31.37 22.3342 31.0247 21.6188 30.334C20.9035 29.6187 20.5952 28.78 20.6938 27.818C20.6938 27.5713 20.8172 27.448 21.0638 27.448C21.1625 27.448 21.2612 27.4973 21.3598 27.596C21.4338 27.67 21.4585 27.7687 21.4338 27.892C21.3845 28.5333 21.6312 29.1623 22.1738 29.779C22.7412 30.371 23.4565 30.667 24.3198 30.667C24.8872 30.667 25.4915 30.4943 26.1328 30.149C26.7742 29.8037 27.4155 29.224 28.0568 28.41C28.0568 28.41 28.1308 28.3113 28.2788 28.114C28.4515 27.9167 28.6365 27.707 28.8338 27.485C29.0312 27.2383 29.1668 27.041 29.2408 26.893C29.3148 26.745 29.4135 26.671 29.5368 26.671C29.6602 26.671 29.7588 26.7327 29.8328 26.856C29.9315 26.9547 29.9438 27.078 29.8698 27.226C29.7218 27.522 29.5245 27.8057 29.2778 28.077C29.0312 28.3483 28.8092 28.6197 28.6118 28.891C27.9212 29.779 27.1935 30.4203 26.4288 30.815C25.6888 31.185 24.9735 31.37 24.2828 31.37ZM42.2564 16.792C42.1084 16.792 41.9851 16.7303 41.8864 16.607C41.8124 16.459 41.8371 16.311 41.9604 16.163L44.5874 13.314C44.7108 13.1907 44.7724 13.0303 44.7724 12.833C44.7724 12.611 44.6614 12.4137 44.4394 12.241C44.2421 12.0683 44.0078 11.982 43.7364 11.982C43.4898 11.982 43.2308 12.093 42.9594 12.315C42.6634 12.5617 42.2071 13.0303 41.5904 13.721C40.9738 14.4117 40.2708 15.238 39.4814 16.2C39.4814 16.2247 39.4444 16.2617 39.3704 16.311C39.2964 16.3357 39.2471 16.348 39.2224 16.348H36.2994C36.0528 16.348 35.9294 16.2247 35.9294 15.978C35.9294 15.7313 36.0528 15.608 36.2994 15.608H39.0374C39.7774 14.6707 40.4558 13.869 41.0724 13.203C41.6891 12.5123 42.1454 12.0313 42.4414 11.76C42.8114 11.4147 43.2431 11.242 43.7364 11.242C44.2298 11.242 44.6491 11.4023 44.9944 11.723C45.3398 12.019 45.5124 12.3767 45.5124 12.796C45.5124 13.166 45.3891 13.4867 45.1424 13.758C45.0931 13.832 44.9204 14.0293 44.6244 14.35C44.3531 14.6707 44.0201 15.0407 43.6254 15.46C43.2308 15.8793 42.8608 16.2863 42.5154 16.681C42.4414 16.755 42.3551 16.792 42.2564 16.792ZM33.3394 24.229C33.1174 24.229 33.0064 24.118 33.0064 23.896C33.0064 23.822 33.0681 23.6987 33.1914 23.526C33.8328 22.7367 34.5728 21.7993 35.4114 20.714C36.2501 19.6287 37.0888 18.494 37.9274 17.31C38.0014 17.2113 38.0878 17.162 38.1864 17.162C38.3344 17.162 38.4454 17.236 38.5194 17.384C38.6181 17.5073 38.6181 17.6307 38.5194 17.754C37.6808 18.938 36.8421 20.085 36.0034 21.195C35.1648 22.2803 34.3878 23.2423 33.6724 24.081C33.5738 24.1797 33.4628 24.229 33.3394 24.229ZM37.4834 28.817C36.5708 28.817 35.8924 28.4593 35.4484 27.744C35.3498 27.5467 35.2634 27.3493 35.1894 27.152C35.1154 26.93 35.0784 26.6957 35.0784 26.449C35.0784 26.0297 35.1771 25.5487 35.3744 25.006C35.5964 24.4387 35.9418 23.8343 36.4104 23.193C36.6818 22.7983 37.0764 22.2927 37.5944 21.676C38.1124 21.0347 38.6551 20.3687 39.2224 19.678C39.8144 18.9627 40.3201 18.309 40.7394 17.717C40.7394 17.6923 40.7764 17.6677 40.8504 17.643C40.9491 17.5937 41.0108 17.569 41.0354 17.569H44.2174C44.4641 17.569 44.5874 17.6923 44.5874 17.939C44.5874 18.1857 44.4641 18.309 44.2174 18.309H41.2204C40.8011 18.901 40.3078 19.5423 39.7404 20.233C39.1978 20.899 38.6674 21.5403 38.1494 22.157C37.6561 22.7737 37.2738 23.267 37.0024 23.637C36.5831 24.2537 36.2871 24.7963 36.1144 25.265C35.9418 25.709 35.8554 26.1037 35.8554 26.449C35.8554 26.819 35.9294 27.115 36.0774 27.337C36.3734 27.8303 36.8421 28.077 37.4834 28.077C38.1248 28.077 38.7784 27.8673 39.4444 27.448C40.1351 27.004 40.8134 26.449 41.4794 25.783C42.1454 25.0923 42.7498 24.377 43.2924 23.637C43.3664 23.5383 43.4651 23.489 43.5884 23.489C43.7118 23.489 43.8228 23.5507 43.9214 23.674C44.0201 23.7973 44.0078 23.933 43.8844 24.081C42.9718 25.3637 41.9358 26.4737 40.7764 27.411C39.6171 28.3483 38.5194 28.817 37.4834 28.817ZM36.2994 31.037C35.3374 31.037 34.5604 30.7657 33.9684 30.223C33.4011 29.6557 33.1421 28.854 33.1914 27.818C33.1914 27.596 33.3148 27.485 33.5614 27.485C33.6601 27.485 33.7464 27.522 33.8204 27.596C33.9191 27.6453 33.9561 27.7317 33.9314 27.855C33.9068 28.5457 34.1041 29.1377 34.5234 29.631C34.9674 30.0997 35.6088 30.334 36.4474 30.334C37.0394 30.334 37.7178 30.186 38.4824 29.89C39.2718 29.5693 40.1228 29.0637 41.0354 28.373C41.0848 28.3237 41.1588 28.299 41.2574 28.299C41.5041 28.299 41.6274 28.4223 41.6274 28.669C41.6274 28.7923 41.5781 28.891 41.4794 28.965C40.5668 29.6557 39.6541 30.1737 38.7414 30.519C37.8534 30.8643 37.0394 31.037 36.2994 31.037ZM47.487 25.302C47.043 25.302 46.6607 25.2033 46.34 25.006C46.192 24.932 46.118 24.8333 46.118 24.71C46.118 24.5867 46.1674 24.488 46.266 24.414C46.3894 24.3153 46.525 24.303 46.673 24.377C46.969 24.5003 47.2404 24.562 47.487 24.562C48.005 24.562 48.5724 24.414 49.189 24.118C49.8057 23.7973 50.3977 23.3903 50.965 22.897C51.5324 22.4037 51.9887 21.8733 52.334 21.306C52.704 20.7387 52.889 20.196 52.889 19.678C52.889 18.6667 52.371 18.161 51.335 18.161C50.1757 18.161 49.0904 18.4693 48.079 19.086C47.0924 19.678 46.1797 20.4303 45.341 21.343C44.527 22.231 43.7994 23.1437 43.158 24.081C43.084 24.2043 42.9854 24.266 42.862 24.266C42.7387 24.266 42.64 24.2043 42.566 24.081C42.4674 23.9577 42.4674 23.822 42.566 23.674C43.2074 22.7367 43.9597 21.787 44.823 20.825C45.6864 19.863 46.6607 19.0613 47.746 18.42C48.856 17.754 50.0524 17.421 51.335 17.421C52.001 17.421 52.5437 17.6183 52.963 18.013C53.407 18.4077 53.629 18.9627 53.629 19.678C53.629 20.344 53.4194 21.01 53 21.676C52.6054 22.3173 52.0874 22.9217 51.446 23.489C50.8294 24.0317 50.1634 24.4757 49.448 24.821C48.7327 25.1417 48.079 25.302 47.487 25.302ZM46.636 28.743C45.97 28.743 45.3534 28.5703 44.786 28.225C44.2434 27.8797 43.972 27.2877 43.972 26.449C43.972 25.7583 44.2187 25.0183 44.712 24.229C45.23 23.4397 45.859 22.6873 46.599 21.972C47.3637 21.232 48.1407 20.5907 48.93 20.048C49.7194 19.5053 50.3977 19.1477 50.965 18.975C50.9897 18.975 51.002 18.975 51.002 18.975C51.0267 18.9503 51.0514 18.938 51.076 18.938C51.3227 18.938 51.446 19.0737 51.446 19.345C51.446 19.493 51.3597 19.604 51.187 19.678C50.6444 19.8507 50.003 20.196 49.263 20.714C48.5477 21.232 47.8324 21.8363 47.117 22.527C46.4264 23.193 45.8467 23.8713 45.378 24.562C44.934 25.2527 44.712 25.8817 44.712 26.449C44.712 26.9917 44.8847 27.3863 45.23 27.633C45.6 27.8797 46.0687 28.003 46.636 28.003C48.0914 28.003 49.559 27.6207 51.039 26.856C52.5437 26.0667 53.8264 24.9813 54.887 23.6C54.961 23.5013 55.0474 23.452 55.146 23.452C55.294 23.452 55.405 23.526 55.479 23.674C55.5777 23.7973 55.5654 23.933 55.442 24.081C54.332 25.5117 52.9754 26.6463 51.372 27.485C49.7934 28.3237 48.2147 28.743 46.636 28.743ZM46.451 30.963C45.8097 30.963 45.156 30.8643 44.49 30.667C43.824 30.4697 43.269 30.149 42.825 29.705C42.3564 29.2363 42.122 28.6197 42.122 27.855C42.122 27.5837 42.2454 27.448 42.492 27.448C42.7387 27.448 42.862 27.5837 42.862 27.855C42.862 28.3237 42.9484 28.6937 43.121 28.965C43.3184 29.2363 43.6514 29.483 44.12 29.705C44.49 29.8777 44.8847 30.0133 45.304 30.112C45.748 30.186 46.1304 30.223 46.451 30.223C47.3637 30.223 48.2517 30.0503 49.115 29.705C50.003 29.3597 50.817 28.9157 51.557 28.373C51.6064 28.3237 51.6804 28.299 51.779 28.299C52.0257 28.299 52.149 28.4223 52.149 28.669C52.149 28.7923 52.0997 28.891 52.001 28.965C51.2117 29.557 50.336 30.038 49.374 30.408C48.4367 30.778 47.4624 30.963 46.451 30.963ZM62.3992 27.818C62.1525 27.818 62.0292 27.7193 62.0292 27.522C62.0292 27.3987 62.0785 27.2877 62.1772 27.189C62.7939 26.523 63.1885 25.8077 63.3612 25.043C63.5339 24.2783 63.6202 23.5137 63.6202 22.749C63.6202 22.231 63.5955 21.7377 63.5462 21.269C63.5215 20.8003 63.5092 20.3687 63.5092 19.974C63.5092 19.2833 63.6079 18.7777 63.8052 18.457C63.8792 18.3583 64.0642 18.2473 64.3602 18.124C64.6562 18.0007 64.9399 17.8403 65.2112 17.643C65.4825 17.421 65.6182 17.1497 65.6182 16.829C65.6182 16.681 65.5812 16.533 65.5072 16.385C65.4825 16.2863 65.3962 16.1877 65.2482 16.089C65.1249 15.9903 64.9399 15.941 64.6932 15.941C64.4465 15.941 64.1259 16.0273 63.7312 16.2C63.3365 16.348 62.8555 16.6317 62.2882 17.051C61.4249 17.6923 60.3765 18.5557 59.1432 19.641C57.9345 20.7017 56.4545 22.1817 54.7032 24.081C54.6292 24.155 54.5429 24.192 54.4442 24.192C54.3209 24.192 54.2222 24.1303 54.1482 24.007C54.0495 23.859 54.0619 23.711 54.1852 23.563C54.4812 23.2423 54.9252 22.749 55.5172 22.083C56.1339 21.3923 56.8369 20.6523 57.6262 19.863C58.4402 19.0737 59.2789 18.3213 60.1422 17.606C61.0055 16.8907 61.8319 16.2987 62.6212 15.83C63.4352 15.3613 64.1505 15.127 64.7672 15.127C65.4085 15.127 65.8772 15.4477 66.1732 16.089C66.2225 16.1877 66.2595 16.2987 66.2842 16.422C66.3089 16.5207 66.3212 16.6317 66.3212 16.755C66.3212 17.199 66.1485 17.6307 65.8032 18.05C65.4825 18.4693 65.0015 18.7777 64.3602 18.975C64.2862 19.197 64.2492 19.5423 64.2492 20.011C64.2492 20.4303 64.2615 20.8743 64.2862 21.343C64.3355 21.8117 64.3602 22.1693 64.3602 22.416C64.3849 23.1067 64.3355 23.8343 64.2122 24.599C64.0889 25.339 63.8175 26.079 63.3982 26.819C64.1135 26.4983 64.8042 26.079 65.4702 25.561C66.1609 25.0183 66.7775 24.3647 67.3202 23.6C67.3942 23.5013 67.4805 23.452 67.5792 23.452C67.7025 23.452 67.8012 23.526 67.8752 23.674C67.9739 23.822 67.9739 23.9577 67.8752 24.081C67.4065 24.747 66.8269 25.3637 66.1362 25.931C65.4455 26.4983 64.7549 26.9547 64.0642 27.3C63.3982 27.6453 62.8432 27.818 62.3992 27.818ZM57.8482 28.965C57.2562 28.9403 56.7505 28.7183 56.3312 28.299C55.9365 27.8797 55.7392 27.3493 55.7392 26.708C55.7392 26.2147 55.8625 25.7213 56.1092 25.228C56.4052 24.562 56.8492 23.8343 57.4412 23.045C58.0579 22.231 58.7485 21.454 59.5132 20.714C60.3025 19.9493 61.0795 19.3203 61.8442 18.827C61.9429 18.7777 62.0169 18.753 62.0662 18.753C62.2882 18.753 62.3992 18.8763 62.3992 19.123C62.3992 19.2463 62.3375 19.345 62.2142 19.419C61.4989 19.863 60.7712 20.455 60.0312 21.195C59.3159 21.9103 58.6745 22.6627 58.1072 23.452C57.5399 24.2167 57.1082 24.9073 56.8122 25.524C56.7135 25.746 56.6395 25.9557 56.5902 26.153C56.5409 26.3503 56.5162 26.5353 56.5162 26.708C56.5162 27.1767 56.6642 27.5467 56.9602 27.818C57.2562 28.0893 57.6015 28.225 57.9962 28.225C58.5635 28.225 59.1432 27.9537 59.7352 27.411C60.3272 26.8437 60.7095 25.931 60.8822 24.673C61.0055 23.8343 61.0795 23.2177 61.1042 22.823C61.1289 22.4283 61.1535 21.9473 61.1782 21.38C61.1782 21.1333 61.3015 21.01 61.5482 21.01C61.7949 21.01 61.9182 21.1333 61.9182 21.38C61.8935 21.9967 61.8319 22.749 61.7332 23.637C61.6592 24.5003 61.4865 25.3513 61.2152 26.19C60.9439 27.0287 60.5369 27.7193 59.9942 28.262C59.4515 28.78 58.7362 29.0143 57.8482 28.965ZM57.8852 31.222C57.5892 31.222 57.2069 31.1727 56.7382 31.074C56.2695 31 55.8009 30.852 55.3322 30.63C54.8635 30.408 54.4689 30.0873 54.1482 29.668C53.8275 29.2487 53.6672 28.7183 53.6672 28.077C53.6672 27.9783 53.6672 27.892 53.6672 27.818C53.6672 27.7193 53.6795 27.6207 53.7042 27.522C53.7289 27.3247 53.8522 27.226 54.0742 27.226C54.3209 27.226 54.4442 27.337 54.4442 27.559C54.4442 27.6577 54.4319 27.7563 54.4072 27.855C54.4072 27.929 54.4072 27.9907 54.4072 28.04C54.4072 28.6567 54.6045 29.15 54.9992 29.52C55.3939 29.8653 55.8625 30.112 56.4052 30.26C56.9725 30.408 57.4782 30.482 57.9222 30.482C59.0322 30.482 60.0435 30.3463 60.9562 30.075C61.8935 29.779 62.6952 29.4337 63.3612 29.039C64.0519 28.6443 64.5822 28.2743 64.9522 27.929C65.0262 27.855 65.1125 27.818 65.2112 27.818C65.3592 27.818 65.4702 27.892 65.5442 28.04C65.6429 28.188 65.6182 28.3237 65.4702 28.447C65.0755 28.817 64.4959 29.224 63.7312 29.668C62.9912 30.0873 62.1279 30.4573 61.1412 30.778C60.1545 31.074 59.0692 31.222 57.8852 31.222Z" fill="#3E4CF7"/>
</svg>
